<svg width="512" height="512" viewBox="0 0 512 512" fill="none" xmlns="http://www.w3.org/2000/svg">
<rect width="512" height="512" fill="#D9F99D"/>
<g filter="url(#filter0_f_6_204)">
<path d="M240.815 251.28C285.231 313.973 366.661 389.57 434.211 422.312C441.37 407.605 444.857 394.871 442.005 385.545C371.665 376.583 310.378 299.49 259.249 243.331C250.908 233.505 237.477 238.29 240.815 251.28Z" fill="url(#paint0_linear_6_204)"/>
<path d="M253.304 250.025C227.496 296.189 176.761 311.663 163.154 354.933C148.377 401.928 167.694 448.515 240.617 418.785C299.665 457.098 341.387 405.578 328.514 344.666C321.526 311.594 259.591 281.303 253.304 250.025Z" fill="url(#paint1_linear_6_204)"/>
<path d="M250.922 270.631C259.604 317.925 253.137 362.226 242.992 405.326C244.461 405.326 299.985 350.657 250.922 270.631Z" fill="url(#paint2_linear_6_204)"/>
<path d="M250.652 250.245C239.21 282.854 175.88 325.961 132.207 338.331C84.7772 351.764 38.7173 331.156 70.5165 259.157C37.1697 204.529 81.3698 165.966 137.522 170.185C176.623 173.122 211.798 208.686 250.652 250.245Z" fill="url(#paint3_linear_6_204)"/>
<path d="M219.026 253.043C171.959 243.036 127.459 248.246 84.0563 257.163C84.0978 255.696 140.354 201.779 219.026 253.043Z" fill="url(#paint4_linear_6_204)"/>
<path d="M252.338 251.103C286.969 200.605 326.354 184.966 337.333 140.95C349.258 93.1535 327.175 47.8101 256.171 81.8649C197.599 48.8411 152.442 94.7966 167.983 151.235C177.331 185.186 216.781 199.6 252.338 251.103Z" fill="url(#paint5_linear_6_204)"/>
<path d="M253.503 228.798C265.014 182.109 261.222 137.501 253.688 93.8756C255.154 93.9638 307.29 151.868 253.503 228.798Z" fill="url(#paint6_linear_6_204)"/>
<path d="M251.027 250.202C282.957 274.403 319.065 325.096 362.373 338.686C409.405 353.446 456.027 334.139 426.265 261.276C464.152 202.96 409.249 166.964 347.363 178.895C312.632 185.59 276.537 220.76 251.027 250.202Z" fill="url(#paint7_linear_6_204)"/>
<path d="M277.985 250.999C325.315 242.318 369.651 248.775 412.786 258.906C412.786 257.439 358.068 201.964 277.985 250.999Z" fill="url(#paint8_linear_6_204)"/>
<path d="M220.731 75.0539C166.253 97.8174 175.237 130.863 176.593 162.673C176.593 162.673 145.991 85.0507 220.731 75.0539Z" fill="white" fill-opacity="0.66518"/>
<path d="M125.393 173.846C86.5061 184.919 60.9868 206.11 73.6052 256.173C72.3387 256.173 31.7716 182.667 125.393 173.846Z" fill="white" fill-opacity="0.66518"/>
<path d="M169.526 415.538C158.362 371.114 184.486 325.106 207.191 312.042C207.191 312.042 143.044 336.152 169.526 415.538Z" fill="white" fill-opacity="0.66518"/>
<path d="M279.581 225.011C295.768 212.873 330.378 188.799 383.741 182.671C378.543 174.879 315.11 182.124 279.581 225.011Z" fill="white" fill-opacity="0.66518"/>
</g>
<defs>
<filter id="filter0_f_6_204" x="58.2751" y="69.2751" width="385.45" height="363.409" filterUnits="userSpaceOnUse" color-interpolation-filters="sRGB">
<feFlood flood-opacity="0" result="BackgroundImageFix"/>
<feBlend mode="normal" in="SourceGraphic" in2="BackgroundImageFix" result="shape"/>
<feGaussianBlur stdDeviation="0.36244" result="effect1_foregroundBlur_6_204"/>
</filter>
<linearGradient id="paint0_linear_6_204" x1="443.002" y1="326.632" x2="364.689" y2="406.076" gradientUnits="userSpaceOnUse">
<stop stop-color="#7ED249"/>
<stop offset="1" stop-color="#286325"/>
</linearGradient>
<linearGradient id="paint1_linear_6_204" x1="302.597" y1="427.001" x2="199.118" y2="290.68" gradientUnits="userSpaceOnUse">
<stop stop-color="#7ED249"/>
<stop offset="1" stop-color="#286325"/>
</linearGradient>
<linearGradient id="paint2_linear_6_204" x1="176.751" y1="317.335" x2="294.134" y2="334.79" gradientUnits="userSpaceOnUse">
<stop stop-color="#7ED249"/>
<stop offset="1" stop-color="#286325"/>
</linearGradient>
<linearGradient id="paint3_linear_6_204" x1="179.396" y1="399.88" x2="25.509" y2="185.072" gradientUnits="userSpaceOnUse">
<stop stop-color="#7ED249"/>
<stop offset="1" stop-color="#286325"/>
</linearGradient>
<linearGradient id="paint4_linear_6_204" x1="151.539" y1="205.29" x2="165.275" y2="273.872" gradientUnits="userSpaceOnUse">
<stop stop-color="#7ED249"/>
<stop offset="1" stop-color="#286325"/>
</linearGradient>
<linearGradient id="paint5_linear_6_204" x1="371.515" y1="248.612" x2="187.416" y2="33.9792" gradientUnits="userSpaceOnUse">
<stop stop-color="#7ED249"/>
<stop offset="1" stop-color="#286325"/>
</linearGradient>
<linearGradient id="paint6_linear_6_204" x1="189.405" y1="93.5377" x2="311.339" y2="228.394" gradientUnits="userSpaceOnUse">
<stop stop-color="#7ED249"/>
<stop offset="1" stop-color="#286325"/>
</linearGradient>
<linearGradient id="paint7_linear_6_204" x1="360.372" y1="375.633" x2="265.906" y2="202.257" gradientUnits="userSpaceOnUse">
<stop stop-color="#7ED249"/>
<stop offset="1" stop-color="#286325"/>
</linearGradient>
<linearGradient id="paint8_linear_6_204" x1="322.875" y1="194.584" x2="326.26" y2="286.474" gradientUnits="userSpaceOnUse">
<stop stop-color="#7ED249"/>
<stop offset="1" stop-color="#286325"/>
</linearGradient>
</defs>
</svg>
